<svg xmlns="http://www.w3.org/2000/svg" viewBox="0 0 64 64">
  <defs>
    <linearGradient id="dgBody" x1="0" y1="0" x2="1" y2="0">
      <stop offset="0" stop-color="#9a9388"/>
      <stop offset="1" stop-color="#3a3530"/>
    </linearGradient>
    <linearGradient id="dgBit" x1="0" y1="0" x2="1" y2="0">
      <stop offset="0" stop-color="#c89254"/>
      <stop offset="1" stop-color="#6a4828"/>
    </linearGradient>
    <linearGradient id="dgEarth" x1="0" y1="0" x2="0" y2="1">
      <stop offset="0" stop-color="#7a6a50"/>
      <stop offset="1" stop-color="#3a2e1e"/>
    </linearGradient>
    <pattern id="dgDirt" x="0" y="0" width="6" height="6" patternUnits="userSpaceOnUse">
      <rect width="6" height="6" fill="url(#dgEarth)"/>
      <path d="M0 3 L6 3 M3 0 L3 6" stroke="#2a2010" stroke-width="0.6" opacity="0.5"/>
    </pattern>
  </defs>
  <rect x="42" y="4" width="20" height="56" fill="url(#dgDirt)" stroke="#1a1814" stroke-width="1.3"/>
  <g stroke="#1a1814" stroke-width="1.4" stroke-linejoin="round">
    <rect x="4" y="26" width="22" height="12" rx="2" fill="url(#dgBody)"/>
    <path d="M26 22 L44 28 L40 32 L44 36 L26 42 Z" fill="url(#dgBit)"/>
    <path d="M32 26 L40 30 M32 34 L40 38" stroke="#3a200c" stroke-width="1" fill="none" opacity="0.85"/>
  </g>
  <g fill="#c87a28" opacity="0.85">
    <circle cx="46" cy="20" r="1.6"/>
    <circle cx="50" cy="46" r="2"/>
    <circle cx="54" cy="14" r="1.4"/>
    <circle cx="58" cy="52" r="1.6"/>
  </g>
</svg>
