<svg xmlns="http://www.w3.org/2000/svg" viewBox="0 0 64 64">
  <defs>
    <linearGradient id="jpBody" x1="0" y1="0" x2="0" y2="1">
      <stop offset="0" stop-color="#9a9388"/>
      <stop offset="1" stop-color="#3a3530"/>
    </linearGradient>
    <linearGradient id="jpTurret" x1="0" y1="0" x2="0" y2="1">
      <stop offset="0" stop-color="#8a8578"/>
      <stop offset="1" stop-color="#4a453e"/>
    </linearGradient>
    <linearGradient id="jpFlame" x1="0" y1="1" x2="0" y2="0">
      <stop offset="0" stop-color="#c87a28" stop-opacity="0"/>
      <stop offset="0.5" stop-color="#d8b058"/>
      <stop offset="1" stop-color="#ffd080"/>
    </linearGradient>
    <linearGradient id="jpGround" x1="0" y1="0" x2="0" y2="1">
      <stop offset="0" stop-color="#5a6a3a"/>
      <stop offset="1" stop-color="#3a4a2a"/>
    </linearGradient>
  </defs>
  <rect x="2" y="54" width="60" height="8" fill="url(#jpGround)" stroke="#1a1814" stroke-width="1.2"/>
  <path d="M6 50 Q26 10 58 22" fill="none" stroke="#a8763a" stroke-width="1.6" stroke-dasharray="3 3" opacity="0.75"/>
  <g transform="translate(24 16)">
    <g stroke="#1a1814" stroke-width="1.3" stroke-linejoin="round">
      <rect x="-6" y="14" width="22" height="6" rx="1.5" fill="#1a1814"/>
      <rect x="-8" y="6" width="26" height="9" rx="2" fill="url(#jpBody)"/>
      <rect x="0" y="-1" width="14" height="8" rx="2" fill="url(#jpTurret)"/>
      <rect x="13" y="2" width="11" height="2.6" fill="#6a655c"/>
    </g>
    <g transform="translate(-14 10) rotate(-25)">
      <path d="M0 -3 L12 -1 L12 1 L0 3 Z" fill="url(#jpFlame)"/>
      <circle cx="2" cy="0" r="1.3" fill="#ffd080" opacity="0.9"/>
    </g>
  </g>
  <g fill="#c87a28" opacity="0.85">
    <circle cx="10" cy="46" r="1.6"/>
    <circle cx="14" cy="52" r="1.2"/>
    <circle cx="6"  cy="52" r="1"/>
  </g>
</svg>
