<svg xmlns="http://www.w3.org/2000/svg" viewBox="0 0 64 64">
  <defs>
    <linearGradient id="shm" x1="0" y1="0" x2="0" y2="1">
      <stop offset="0" stop-color="#c9c9c9"/>
      <stop offset="1" stop-color="#555"/>
    </linearGradient>
  </defs>
  <g stroke="#222" stroke-width="1.3" stroke-linejoin="round">
    <g transform="translate(12,6)">
      <path d="M0 0 L8 0 L4 -6 Z" fill="#d44"/>
      <rect x="0" y="0" width="8" height="14" fill="url(#shm)"/>
      <path d="M0 14 L4 20 L8 14 Z" fill="#333"/>
    </g>
    <g transform="translate(28,14)">
      <path d="M0 0 L8 0 L4 -6 Z" fill="#d44"/>
      <rect x="0" y="0" width="8" height="14" fill="url(#shm)"/>
      <path d="M0 14 L4 20 L8 14 Z" fill="#333"/>
    </g>
    <g transform="translate(44,4)">
      <path d="M0 0 L8 0 L4 -6 Z" fill="#d44"/>
      <rect x="0" y="0" width="8" height="14" fill="url(#shm)"/>
      <path d="M0 14 L4 20 L8 14 Z" fill="#333"/>
    </g>
  </g>
  <path d="M4 54 Q32 46 60 54" fill="none" stroke="#444" stroke-width="2"/>
  <g fill="#ff8a1e" opacity="0.85">
    <circle cx="14" cy="52" r="3"/>
    <circle cx="32" cy="50" r="4"/>
    <circle cx="50" cy="52" r="3"/>
  </g>
</svg>
