<svg xmlns="http://www.w3.org/2000/svg" viewBox="0 0 64 64">
  <defs>
    <linearGradient id="mrBody" x1="0" y1="0" x2="0" y2="1">
      <stop offset="0" stop-color="#9a9388"/>
      <stop offset="1" stop-color="#3a3530"/>
    </linearGradient>
    <linearGradient id="mrNose" x1="0" y1="0" x2="0" y2="1">
      <stop offset="0" stop-color="#c89254"/>
      <stop offset="1" stop-color="#6a4828"/>
    </linearGradient>
  </defs>
  <g stroke="#1a1814" stroke-width="1.3" stroke-linejoin="round">
    <g transform="translate(12,6)">
      <path d="M0 0 L8 0 L4 -6 Z" fill="url(#mrNose)"/>
      <rect x="0" y="0" width="8" height="14" fill="url(#mrBody)"/>
      <path d="M0 14 L4 20 L8 14 Z" fill="#1a1814"/>
    </g>
    <g transform="translate(28,14)">
      <path d="M0 0 L8 0 L4 -6 Z" fill="url(#mrNose)"/>
      <rect x="0" y="0" width="8" height="14" fill="url(#mrBody)"/>
      <path d="M0 14 L4 20 L8 14 Z" fill="#1a1814"/>
    </g>
    <g transform="translate(44,4)">
      <path d="M0 0 L8 0 L4 -6 Z" fill="url(#mrNose)"/>
      <rect x="0" y="0" width="8" height="14" fill="url(#mrBody)"/>
      <path d="M0 14 L4 20 L8 14 Z" fill="#1a1814"/>
    </g>
  </g>
  <path d="M4 54 Q32 46 60 54" fill="none" stroke="#5a6a3a" stroke-width="2"/>
  <g fill="#c87a28" opacity="0.85">
    <circle cx="14" cy="52" r="3"/>
    <circle cx="32" cy="50" r="4"/>
    <circle cx="50" cy="52" r="3"/>
  </g>
</svg>
