<svg xmlns="http://www.w3.org/2000/svg" viewBox="0 0 64 64">
  <defs>
    <linearGradient id="spBody" x1="0" y1="0" x2="1" y2="0">
      <stop offset="0" stop-color="#9a9388"/>
      <stop offset="1" stop-color="#3a3530"/>
    </linearGradient>
    <linearGradient id="spNose" x1="0" y1="0" x2="1" y2="0">
      <stop offset="0" stop-color="#c89254"/>
      <stop offset="1" stop-color="#6a4828"/>
    </linearGradient>
  </defs>
  <g stroke="#1a1814" stroke-width="1.3" stroke-linejoin="round">
    <rect x="6" y="28" width="16" height="8" rx="2" fill="url(#spBody)"/>
    <path d="M22 28 L28 32 L22 36 Z" fill="url(#spNose)"/>
    <rect x="36" y="12" width="14" height="7" rx="2" fill="url(#spBody)"/>
    <path d="M50 12 L56 15.5 L50 19 Z" fill="url(#spNose)"/>
    <rect x="36" y="28" width="14" height="7" rx="2" fill="url(#spBody)"/>
    <path d="M50 28 L56 31.5 L50 35 Z" fill="url(#spNose)"/>
    <rect x="36" y="44" width="14" height="7" rx="2" fill="url(#spBody)"/>
    <path d="M50 44 L56 47.5 L50 51 Z" fill="url(#spNose)"/>
  </g>
  <g stroke="#7a8a4a" stroke-width="1.4" fill="none" stroke-linecap="round" opacity="0.85">
    <path d="M26 30 L36 16"/>
    <path d="M26 32 L36 32"/>
    <path d="M26 34 L36 48"/>
  </g>
</svg>
